# xmcd CD database file
# Copyright (C) 1993-1998 Ti Kan
# 
# Track frame offsets:
#     183
#     12558
#     24633
#     36308
#     62845
#     87433
#     127983
#     149583
#     162608
#     193558
#     223795
#     237958
#     256158
#     283495
#     294933
# 
# Disc length: 4607 seconds
# 
# Revision: 1
# Processed by: cddbd v1.4b41PL1 Copyright (c) Steve Scherf et al.
# Submitted via: DiscPlay 4.0.3
# 
DISCID=ec11fd0f
DTITLE=Van Morrison - Soul Labyrinth
DYEAR=1900
DGENRE=
TTITLE0=Out of sight
TTITLE1=Ain't that lovin' you baby
TTITLE2=Baby please don't go
TTITLE3=Who do you love
TTITLE4=When the healing has begun
TTITLE5=See me through
TTITLE6=Some peace of mind
TTITLE7=Enlightenment
TTITLE8=Caravan
TTITLE9=In the garden
TTITLE10=Youth of a thousand summers
TTITLE11=Whenever god shines his light on me
TTITLE12=Vanlose stairway
TTITLE13=Full force gale
TTITLE14=Moondance
EXTD=
EXTT0=
EXTT1=
EXTT2=
EXTT3=
EXTT4=
EXTT5=
EXTT6=
EXTT7=
EXTT8=
EXTT9=
EXTT10=
EXTT11=
EXTT12=
EXTT13=
EXTT14=
PLAYORDER=
